<mxfile host="app.diagrams.net" modified="2021-10-20T08:48:27.094Z" agent="5.0 (X11; Linux x86_64) AppleWebKit/537.36 (KHTML, like Gecko) Chrome/95.0.4638.54 Safari/537.36" etag="QPunYnVqJZmre_mKFNK4" version="15.5.6" type="github">
  <diagram id="Ciirif86ZsIuMZwTqC7I" name="Страница 1">
    <mxGraphModel dx="794" dy="747" grid="1" gridSize="10" guides="1" tooltips="1" connect="1" arrows="1" fold="1" page="1" pageScale="1" pageWidth="827" pageHeight="1169" math="0" shadow="0">
      <root>
        <mxCell id="0" />
        <mxCell id="1" parent="0" />
        <mxCell id="SFR-RZBCcXnOUqRTTy71-5" value="балансировка нагрузки" style="whiteSpace=wrap;html=1;shadow=0;dashed=0;fontSize=16;fontColor=#1CA5B8;fontStyle=0;strokeColor=#1CA5B8;strokeWidth=1;fillColor=none;spacing=5;spacingLeft=0;" vertex="1" parent="1">
          <mxGeometry x="180" y="1030" width="120" height="60" as="geometry" />
        </mxCell>
        <mxCell id="SFR-RZBCcXnOUqRTTy71-15" value="" style="edgeStyle=orthogonalEdgeStyle;rounded=0;orthogonalLoop=1;jettySize=auto;html=1;" edge="1" parent="1" source="SFR-RZBCcXnOUqRTTy71-7" target="SFR-RZBCcXnOUqRTTy71-14">
          <mxGeometry relative="1" as="geometry" />
        </mxCell>
        <mxCell id="SFR-RZBCcXnOUqRTTy71-18" value="" style="edgeStyle=orthogonalEdgeStyle;rounded=0;orthogonalLoop=1;jettySize=auto;html=1;" edge="1" parent="1" source="SFR-RZBCcXnOUqRTTy71-7" target="SFR-RZBCcXnOUqRTTy71-17">
          <mxGeometry relative="1" as="geometry" />
        </mxCell>
        <mxCell id="SFR-RZBCcXnOUqRTTy71-7" value="&amp;nbsp;CRM" style="whiteSpace=wrap;html=1;shadow=0;dashed=0;fontSize=16;fontColor=#1CA5B8;fontStyle=0;strokeColor=#1CA5B8;strokeWidth=1;fillColor=none;spacing=5;spacingLeft=0;" vertex="1" parent="1">
          <mxGeometry x="10" y="900" width="120" height="60" as="geometry" />
        </mxCell>
        <mxCell id="SFR-RZBCcXnOUqRTTy71-11" value="" style="edgeStyle=orthogonalEdgeStyle;rounded=0;orthogonalLoop=1;jettySize=auto;html=1;" edge="1" parent="1" source="SFR-RZBCcXnOUqRTTy71-9" target="SFR-RZBCcXnOUqRTTy71-5">
          <mxGeometry relative="1" as="geometry" />
        </mxCell>
        <mxCell id="SFR-RZBCcXnOUqRTTy71-13" value="" style="edgeStyle=orthogonalEdgeStyle;rounded=0;orthogonalLoop=1;jettySize=auto;html=1;" edge="1" parent="1" source="SFR-RZBCcXnOUqRTTy71-9" target="SFR-RZBCcXnOUqRTTy71-12">
          <mxGeometry relative="1" as="geometry" />
        </mxCell>
        <mxCell id="SFR-RZBCcXnOUqRTTy71-9" value="система заказов" style="whiteSpace=wrap;html=1;shadow=0;dashed=0;fontSize=16;fontColor=#1CA5B8;fontStyle=0;strokeColor=#1CA5B8;strokeWidth=1;fillColor=none;spacing=5;spacingLeft=0;" vertex="1" parent="1">
          <mxGeometry x="10" y="1060" width="120" height="60" as="geometry" />
        </mxCell>
        <mxCell id="SFR-RZBCcXnOUqRTTy71-12" value="интеграция с всеми площадками" style="whiteSpace=wrap;html=1;shadow=0;dashed=0;fontSize=16;fontColor=#1CA5B8;fontStyle=0;strokeColor=#1CA5B8;strokeWidth=1;fillColor=none;spacing=5;spacingLeft=0;" vertex="1" parent="1">
          <mxGeometry x="180" y="1100" width="120" height="60" as="geometry" />
        </mxCell>
        <mxCell id="SFR-RZBCcXnOUqRTTy71-14" value="программы лояльности" style="whiteSpace=wrap;html=1;shadow=0;dashed=0;fontSize=16;fontColor=#1CA5B8;fontStyle=0;strokeColor=#1CA5B8;strokeWidth=1;fillColor=none;spacing=5;spacingLeft=0;" vertex="1" parent="1">
          <mxGeometry x="180" y="870" width="120" height="60" as="geometry" />
        </mxCell>
        <mxCell id="SFR-RZBCcXnOUqRTTy71-20" value="" style="edgeStyle=orthogonalEdgeStyle;rounded=0;orthogonalLoop=1;jettySize=auto;html=1;" edge="1" parent="1" source="SFR-RZBCcXnOUqRTTy71-17" target="SFR-RZBCcXnOUqRTTy71-19">
          <mxGeometry relative="1" as="geometry" />
        </mxCell>
        <mxCell id="SFR-RZBCcXnOUqRTTy71-21" value="" style="edgeStyle=orthogonalEdgeStyle;rounded=0;orthogonalLoop=1;jettySize=auto;html=1;" edge="1" parent="1" source="SFR-RZBCcXnOUqRTTy71-17" target="SFR-RZBCcXnOUqRTTy71-19">
          <mxGeometry relative="1" as="geometry" />
        </mxCell>
        <mxCell id="SFR-RZBCcXnOUqRTTy71-23" value="" style="edgeStyle=orthogonalEdgeStyle;rounded=0;orthogonalLoop=1;jettySize=auto;html=1;" edge="1" parent="1" source="SFR-RZBCcXnOUqRTTy71-17" target="SFR-RZBCcXnOUqRTTy71-22">
          <mxGeometry relative="1" as="geometry" />
        </mxCell>
        <mxCell id="SFR-RZBCcXnOUqRTTy71-17" value="анализ клиентов" style="whiteSpace=wrap;html=1;shadow=0;dashed=0;fontSize=16;fontColor=#1CA5B8;fontStyle=0;strokeColor=#1CA5B8;strokeWidth=1;fillColor=none;spacing=5;spacingLeft=0;" vertex="1" parent="1">
          <mxGeometry x="180" y="950" width="120" height="60" as="geometry" />
        </mxCell>
        <mxCell id="SFR-RZBCcXnOUqRTTy71-19" value="опросы" style="whiteSpace=wrap;html=1;shadow=0;dashed=0;fontSize=16;fontColor=#1CA5B8;fontStyle=0;strokeColor=#1CA5B8;strokeWidth=1;fillColor=none;spacing=5;spacingLeft=0;" vertex="1" parent="1">
          <mxGeometry x="390" y="910" width="120" height="60" as="geometry" />
        </mxCell>
        <mxCell id="SFR-RZBCcXnOUqRTTy71-22" value="обратная связь" style="whiteSpace=wrap;html=1;shadow=0;dashed=0;fontSize=16;fontColor=#1CA5B8;fontStyle=0;strokeColor=#1CA5B8;strokeWidth=1;fillColor=none;spacing=5;spacingLeft=0;" vertex="1" parent="1">
          <mxGeometry x="390" y="980" width="120" height="60" as="geometry" />
        </mxCell>
        <mxCell id="SFR-RZBCcXnOUqRTTy71-24" value="Целевая аудитория" style="html=1;shadow=0;dashed=0;shape=mxgraph.bootstrap.rrect;rSize=5;strokeColor=#33A64C;strokeWidth=1;fillColor=none;fontColor=#33A64C;whiteSpace=wrap;align=center;verticalAlign=middle;spacingLeft=0;fontStyle=0;fontSize=16;spacing=5;" vertex="1" parent="1">
          <mxGeometry y="130" width="90" height="40" as="geometry" />
        </mxCell>
        <mxCell id="SFR-RZBCcXnOUqRTTy71-30" value="туроператор" style="html=1;shadow=0;dashed=0;align=center;verticalAlign=middle;shape=mxgraph.arrows2.arrow;dy=0.6;dx=40;flipH=1;notch=0;" vertex="1" parent="1">
          <mxGeometry x="110" y="10" width="100" height="70" as="geometry" />
        </mxCell>
        <mxCell id="SFR-RZBCcXnOUqRTTy71-31" value="группы" style="html=1;shadow=0;dashed=0;align=center;verticalAlign=middle;shape=mxgraph.arrows2.arrow;dy=0.6;dx=40;flipH=1;notch=0;" vertex="1" parent="1">
          <mxGeometry x="110" y="100" width="100" height="70" as="geometry" />
        </mxCell>
        <mxCell id="SFR-RZBCcXnOUqRTTy71-32" value="семьи" style="html=1;shadow=0;dashed=0;align=center;verticalAlign=middle;shape=mxgraph.arrows2.arrow;dy=0.6;dx=40;flipH=1;notch=0;" vertex="1" parent="1">
          <mxGeometry x="110" y="190" width="100" height="70" as="geometry" />
        </mxCell>
        <mxCell id="SFR-RZBCcXnOUqRTTy71-33" value="одиночки" style="html=1;shadow=0;dashed=0;align=center;verticalAlign=middle;shape=mxgraph.arrows2.arrow;dy=0.6;dx=40;flipH=1;notch=0;" vertex="1" parent="1">
          <mxGeometry x="110" y="280" width="100" height="70" as="geometry" />
        </mxCell>
      </root>
    </mxGraphModel>
  </diagram>
</mxfile>
